<?xml version="1.0" encoding="UTF-8"?>
<svg id="Layer_2" data-name="Layer 2" xmlns="http://www.w3.org/2000/svg" viewBox="0 0 155.83 155.61">
  <defs>
    <style>
      .cls-1 {
        fill: #fff;
      }
    </style>
  </defs>
  <g id="Layer_1-2" data-name="Layer 1">
    <g>
      <path class="cls-1" d="m122.96,65.33c.8-1.39-.88-2.87-2.16-1.9l-60.77,46.24c-.59.45-.75,1.26-.38,1.9l17,29.5c.56.98,1.98.98,2.54,0l27.55-47.65,16.22-28.09Z"/>
      <path class="cls-1" d="m67.98,43.68H22.9c-1.13,0-1.84,1.22-1.27,2.2l27.45,47.54h.1c.62,1.08,2.22.94,2.65-.22l17.52-47.55c.35-.96-.36-1.98-1.38-1.98Z"/>
      <path class="cls-1" d="m77.91,32.65h63.39C127.18,12.89,104.06,0,77.91,0S28.65,12.89,14.52,32.65h63.39Z"/>
      <path class="cls-1" d="m147.95,43.76l-31.74,55.18-32.7,56.67c40.42-2.87,72.32-36.55,72.32-77.69,0-12.25-2.84-23.84-7.87-34.15Z"/>
      <path class="cls-1" d="m39.72,98.94L7.88,43.76C2.84,54.07,0,65.66,0,77.91c0,41.18,31.96,74.88,72.42,77.7l-32.71-56.68Z"/>
      <path class="cls-1" d="m124.27,43.68h-41.58c-.62,0-1.17.38-1.38.96l-16.14,43.96c-.51,1.38,1.1,2.56,2.27,1.67l57.72-43.96c1.12-.85.52-2.64-.89-2.64Z"/>
    </g>
  </g>
</svg>