<?xml version="1.0" encoding="UTF-8"?>
<svg id="Layer_2" data-name="Layer 2" xmlns="http://www.w3.org/2000/svg" viewBox="0 0 150.01 133.39">
  <defs>
    <style>
      .cls-1 {
        fill: #fff;
      }
    </style>
  </defs>
  <g id="Layer_1-2" data-name="Layer 1">
    <g>
      <path class="cls-1" d="m35.48,42.7h-18.87v21.77H0V.05h35.48v14.76h-18.87v13.22h18.87v14.67Z"/>
      <path class="cls-1" d="m78.11,64.48h-37.45V0h16.63v49.72h20.82v14.77Z"/>
      <path class="cls-1" d="m99.65,64.48h-16.63V0h16.63v64.48Z"/>
      <path class="cls-1" d="m99.4,99.75c0,7.66-4.11,10.4-11.45,10.4h-2.1v23.22h-16.61v-23.22h-2.42c-7.34,0-11.29-2.74-11.29-10.4v-30.8h16.61v26.45h10.64v-26.45h16.61v30.8Z"/>
      <path class="cls-1" d="m137.2,68.54h-21.18c-7.39,0-11.44,2.92-11.44,10.63v54.22h16.72v-17.45h10.63v17.45h16.72v-54.22c0-7.71-4.06-10.63-11.44-10.63Zm-10.61,8.54c4.82,0,9.09,2.38,11.7,6.04h-23.4c2.61-3.66,6.88-6.04,11.7-6.04Zm-2.35,16.35l2.99-8.1c.06-.12.15-.17.26-.17h7.67c.26,0,.38.32.15.49l-10.66,8.1c-.2.15-.49-.06-.41-.32Zm-2.44.87c-.09.2-.38.23-.49.03h-.03l-5.05-8.77c-.12-.17.03-.41.23-.41h8.3c.2,0,.32.17.26.38l-3.22,8.77Zm-9.58-2.85c0-2.26.52-4.38,1.45-6.3l5.89,10.19,6.01,10.45c-7.46-.52-13.36-6.74-13.36-14.34Zm14.17,11.67l-3.14-5.46c-.09-.12-.06-.26.06-.35l11.21-8.51c.23-.17.55.09.41.35l-2.99,5.17-5.08,8.8c-.09.17-.35.17-.46,0Zm1.25,2.67l6.04-10.45,5.87-10.19c.93,1.92,1.45,4.07,1.45,6.3,0,7.61-5.89,13.82-13.36,14.34Z"/>
      <path class="cls-1" d="m138.63,0h-32.44v64.48h16.63v-15.82h15.82c7.34,0,11.38-2.74,11.38-10.41V10.57c0-7.67-4.04-10.57-11.38-10.57Zm-10.68,8.49c4.79,0,9.04,2.37,11.64,6.01h-23.27c2.6-3.64,6.84-6.01,11.64-6.01Zm-2.34,16.26l2.97-8.06c.06-.12.14-.17.26-.17h7.62c.26,0,.38.32.14.49l-10.6,8.06c-.2.14-.49-.06-.4-.32Zm-2.43.87c-.09.2-.38.23-.49.03h-.03l-5.02-8.72c-.12-.17.03-.4.23-.4h8.26c.2,0,.32.17.26.38l-3.2,8.72Zm-9.53-2.83c0-2.25.52-4.36,1.44-6.27l5.86,10.13,5.98,10.39c-7.42-.52-13.28-6.7-13.28-14.26Zm14.09,11.61l-3.12-5.43c-.09-.12-.06-.26.06-.35l11.14-8.46c.23-.17.55.09.4.35l-2.97,5.14-5.05,8.75c-.09.17-.35.17-.46,0Zm1.24,2.66l6.01-10.39,5.83-10.13c.92,1.91,1.44,4.04,1.44,6.27,0,7.56-5.86,13.74-13.28,14.26Z"/>
    </g>
  </g>
</svg>