<svg width="465" height="220" viewBox="0 0 465 220" fill="none" xmlns="http://www.w3.org/2000/svg">
<g clip-path="url(#clip0_588_250)">
<path d="M104.9 110H52.7C22.85 110 1.1 90.35 1.1 61.25C1.1 32.15 22.85 12.5 52.7 12.5H104.9V37.55H50.9C37.25 37.55 27.2 47.15 27.2 61.25C27.2 75.2 37.25 84.8 50.9 84.8H80V71.45H48.35V50.6H104.9V110ZM168.088 84.8H185.788C199.438 84.8 209.338 75.2 209.338 61.25C209.338 47.15 199.438 37.55 185.788 37.55H168.088C154.438 37.55 144.388 47.15 144.388 61.25C144.388 75.2 154.288 84.8 168.088 84.8ZM183.988 110H169.888C140.038 110 118.288 90.35 118.288 61.25C118.288 32.15 140.038 12.5 169.888 12.5H183.988C213.688 12.5 235.438 32.15 235.438 61.25C235.438 90.35 213.688 110 183.988 110ZM334.532 110H248.732V12.5H275.132V84.8H334.532V110ZM401.952 110H345.852V12.5H401.952C431.652 12.5 453.402 32.15 453.402 61.25C453.402 90.35 431.652 110 401.952 110ZM372.102 84.8H403.752C417.402 84.8 427.152 75.2 427.152 61.25C427.152 47.15 417.402 37.55 403.752 37.55H372.102V84.8Z" fill="white"/>
<path d="M114.65 212H80.45L60.95 187.25H37.85V164.45H71.45C78.65 164.45 83.75 159.5 83.75 152C83.75 144.5 78.65 139.55 71.45 139.55H30.35V212H4.25V114.5H71.45C93.8 114.5 110 129.2 110 150.95C110 165.8 102.2 177.5 90.05 183.35L114.65 212ZM187.273 212H165.673C139.873 212 121.123 194.9 121.123 170V114.5H147.523V168.05C147.523 179.3 155.323 186.8 166.123 186.8H186.823C197.623 186.8 205.423 179.3 205.423 168.05V114.5H231.823V170C231.823 194.9 213.073 212 187.273 212ZM319.114 212H245.014V186.8H317.914C321.664 186.8 324.364 184.4 324.364 180.2C324.364 176 321.664 173.45 317.914 173.45H275.014C256.864 173.45 243.814 161.45 243.814 144.05C243.814 126.35 256.864 114.5 275.014 114.5H349.114V139.55H276.214C272.464 139.55 269.914 141.8 269.914 146C269.914 150.05 272.464 152.6 276.214 152.6H319.114C337.414 152.6 350.464 164.75 350.464 182.15C350.464 200.15 337.414 212 319.114 212ZM462.73 212H436.48V174.2H398.38V150.35H436.48V114.5H462.73V212ZM389.68 212H363.43V114.5H389.68V212Z" fill="white"/>
</g>
<defs>
<clipPath id="clip0_588_250">
<rect width="465" height="220" fill="white"/>
</clipPath>
</defs>
</svg>
