<svg width="100" height="100" viewBox="0 0 100 100" fill="none" xmlns="http://www.w3.org/2000/svg">
<g clip-path="url(#clip0_591_250)">
<path d="M56.9 30.0002L56.5 29.8971V29.6909L56.9 30.0002Z" fill="white"/>
<path d="M61.1004 27.2165V27.4227L60.4004 26.9072" fill="white"/>
<path d="M61 31.134L61.7 31.6494L66.3 34.8453L65.6 35.9793C64.5 37.7319 64.1 39.8968 64.5 41.9587C64.9 44.0206 66.1 45.7731 67.8 47.0102C69.5 48.1443 71.5 48.5566 73.6 48.1443C75.6 47.7319 77.3 46.4948 78.5 44.7422L79.2 43.6082L88.3 49.7938L55.6 100.309L46.5 94.1236L47.2 92.9896C48.3 91.237 48.7 89.1752 48.3 87.0102C47.9 84.9484 46.7 83.1958 45 81.9587C43.3 80.8247 41.2 80.4123 39.2 80.8247C37.2 81.2371 35.5 82.4742 34.3 84.2267L33.6 85.3608L24.5 79.1752L50.8 38.2474L57 28.5566L59.3 30.103L61 31.134ZM58.2 32.3711L57.9 32.1649L50 44.4329L35.5 67.0102L28.1 78.3505L33 81.7525C35.6 78.5566 39.8 77.3195 43.7 78.5566C44.7 78.8659 45.6 79.2783 46.4 79.8968C50.8 82.8865 52.2 88.5566 49.9 93.402L54.8 96.8041L75.3 64.9484L76.7 62.7834L84.6 50.5154L79.7 47.1133C76.3 51.134 70.6 51.9587 66.3 49.0721C61.9 46.0824 60.5 40.4123 62.8 35.5669L58.2 32.3711Z" fill="white"/>
<path d="M76.0998 62.3711L74.6998 64.433L71.2998 62.1649L72.6998 60L76.0998 62.3711Z" fill="white"/>
<path d="M70.5998 58.5566L69.2998 60.7216L65.7998 58.3504L67.1998 56.2886L70.5998 58.5566Z" fill="white"/>
<path d="M61.6925 52.4624L60.3115 54.6108L63.7293 56.9457L65.1103 54.7973L61.6925 52.4624Z" fill="white"/>
<path d="M60.4 26.9074L58.9 25.8764L60.8 18.5568L55.1 17.0105C53.1 21.9589 48 24.5362 42.9 23.196C37.9 21.7527 34.7 16.8043 35.5 11.5465L29.8 10.0001L25.4 26.7012L15.7 63.5053L21.4 65.1548C23.4 60.2063 28.5 57.629 33.5 58.9692C33.7 59.0723 34 59.0723 34.2 59.1754L32.8 61.4434H32.7C28.6 60.3094 24.4 62.8867 23.3 67.0105L23 68.2476L12.5 65.2579L28 6.70117L38.5 9.69086L38.2 10.928C37.7 12.9898 37.9 15.1548 38.9 16.9074C39.9 18.763 41.6 20.1032 43.5 20.6187C45.5 21.1342 47.5 20.928 49.3 19.897C51.1 18.8661 52.4 17.1135 52.9 15.1548L53.2 13.9177L63.7 16.9074L61 27.3197" fill="white"/>
<path d="M59.7004 51.1338L58.3004 53.1957L54.9004 50.9276L56.2004 48.7627L59.7004 51.1338Z" fill="white"/>
<path d="M54.2004 47.3199L52.8004 49.4848L49.4004 47.1137L50.7004 44.9487L54.2004 47.3199Z" fill="white"/>
<path d="M49.8998 30.928L49.2998 33.4022L45.2998 32.2682L45.9998 29.7939L49.8998 30.928Z" fill="white"/>
<path d="M43.6 29.0719L42.9 31.5462L39 30.4121L39.6 28.041L43.6 29.0719Z" fill="white"/>
<path d="M37.2996 27.3196L36.5996 29.7938L32.5996 28.6598L33.2996 26.1855L37.2996 27.3196Z" fill="white"/>
<path d="M30.8998 25.5671L30.2998 28.0414L26.2998 26.9073L26.8998 24.4331L30.8998 25.5671Z" fill="white"/>
</g>
<defs>
<clipPath id="clip0_591_250">
<rect width="100" height="100" fill="white"/>
</clipPath>
</defs>
</svg>
