<?xml version="1.0" encoding="UTF-8"?>
<svg id="Layer_2" data-name="Layer 2" xmlns="http://www.w3.org/2000/svg" viewBox="0 0 123.25 123.25">
  <defs>
    <style>
      .cls-1 {
        fill: #fff;
        opacity: .2;
      }
    </style>
  </defs>
  <g id="Layer_1-2" data-name="Layer 1">
    <path class="cls-1" d="m30.87,44.99l-11.8-6.38c1.28-2.35,2.75-4.58,4.39-6.68l10.59,8.24c-1.18,1.52-2.25,3.13-3.17,4.83Zm-2.32,5.29l-12.69-4.35c-.86,2.5-1.52,5.09-1.96,7.75l13.24,2.2c.32-1.93.8-3.8,1.42-5.6Zm-1.9,11.36h-13.42c0,2.72.24,5.38.67,7.98l13.24-2.22c-.31-1.88-.48-3.8-.49-5.76Zm15.85-29.28l-7.34-11.23c-2.24,1.47-4.34,3.11-6.3,4.91l9.09,9.87c1.42-1.3,2.94-2.49,4.56-3.55Zm10.54-4.64l-3.3-13.01c-2.61.66-5.13,1.54-7.56,2.61l5.39,12.29c1.75-.77,3.57-1.41,5.46-1.89Zm39.34,17.26l11.8-6.39c-1.28-2.35-2.75-4.57-4.39-6.67l-10.58,8.24c1.18,1.51,2.25,3.12,3.17,4.82Zm-7.08-9.07l9.08-9.87c-1.96-1.8-4.06-3.44-6.3-4.91l-7.34,11.23c1.61,1.06,3.14,2.24,4.55,3.55Zm10.82,19.95l13.24-2.21c-.44-2.66-1.1-5.25-1.96-7.74l-12.69,4.36c.62,1.8,1.1,3.67,1.42,5.6Zm-15.05-38.55c-2.42-1.07-4.95-1.95-7.56-2.61l-3.29,13.02c1.89.48,3.71,1.11,5.46,1.88l5.39-12.29Zm-19.44,9.33c.98,0,1.94.05,2.89.13l1.11-13.38c-1.32-.11-2.65-.18-4-.18s-2.67.07-3.99.18l1.11,13.38c.95-.08,1.91-.13,2.88-.13Zm-33.06,46.35l-12.69,4.36c.88,2.54,1.95,4.99,3.21,7.32l11.8-6.39c-.92-1.68-1.69-3.45-2.32-5.29Zm6.65,29.14c2.22,1.45,4.57,2.73,7.02,3.81l5.38-12.29c-1.77-.78-3.47-1.7-5.08-2.75l-7.33,11.23Zm-1.14-19.02l-10.58,8.24c1.64,2.1,3.45,4.07,5.41,5.88l9.08-9.87c-1.42-1.31-2.72-2.73-3.91-4.25Zm58.32-4.87l11.8,6.38c1.26-2.33,2.33-4.78,3.2-7.32l-12.69-4.35c-.63,1.84-1.4,3.6-2.31,5.29Zm-7.07,9.07l9.09,9.86c1.96-1.81,3.76-3.77,5.4-5.88l-10.59-8.23c-1.18,1.52-2.49,2.94-3.9,4.25Zm37.94-25.7c0,33.98-27.65,61.63-61.63,61.63S0,95.61,0,61.63,27.65,0,61.63,0s61.63,27.64,61.63,61.63Zm-10.97,0c0-27.93-22.72-50.66-50.66-50.66S10.97,33.69,10.97,61.63s22.72,50.65,50.66,50.65,50.66-22.72,50.66-50.65Zm-2.26-.01h-13.42c0,1.97-.17,3.89-.48,5.76l13.24,2.2c.43-2.59.66-5.24.66-7.95h0Zm-48.4,32.55c-17.94,0-32.53-14.59-32.53-32.53s14.59-32.54,32.53-32.54,32.53,14.6,32.53,32.54-14.59,32.53-32.53,32.53Zm21.69-32.53c0-11.98-9.71-21.69-21.69-21.69s-21.69,9.71-21.69,21.69,9.71,21.69,21.69,21.69,21.69-9.71,21.69-21.69Zm-33.53,46.92c2.55.64,5.19,1.08,7.88,1.29l1.1-13.37c-1.95-.16-3.85-.47-5.7-.93l-3.28,13.01Zm14.76-12.08l1.12,13.37c2.69-.22,5.33-.66,7.88-1.31l-3.3-13.01c-1.84.47-3.75.78-5.7.95Zm11.15-2.84l5.4,12.28c2.45-1.08,4.8-2.36,7.02-3.82l-7.35-11.22c-1.6,1.05-3.3,1.98-5.07,2.76Zm-49.39-11.33c-1.27,0-2.3,1.03-2.3,2.31s1.03,2.3,2.3,2.3,2.3-1.03,2.3-2.3-1.03-2.31-2.3-2.31Zm50.88-15.04c-.57,1.56-2.3,2.37-3.86,1.8-1.19-.43-1.93-1.54-1.98-2.72l-3.99-1.45c-1.14,1.99-3.28,3.34-5.74,3.34-.39,0-.77-.04-1.14-.11l-1.44,3.95c.88.8,1.25,2.07.81,3.26-.57,1.56-2.3,2.37-3.86,1.8-1.56-.57-2.37-2.3-1.8-3.86.43-1.19,1.53-1.93,2.73-1.98l1.43-3.94c-1.99-1.14-3.34-3.28-3.34-5.74,0-.41.04-.8.11-1.19l-3.94-1.43c-.8.88-2.08,1.25-3.27.81-1.56-.57-2.37-2.3-1.8-3.86.57-1.57,2.3-2.37,3.86-1.8,1.19.43,1.94,1.53,1.98,2.72l3.95,1.44c1.14-1.97,3.27-3.3,5.71-3.3.41,0,.8.04,1.19.11l1.45-3.99c-.89-.8-1.25-2.08-.82-3.27.57-1.56,2.3-2.37,3.86-1.8,1.56.57,2.37,2.3,1.8,3.86-.43,1.19-1.53,1.93-2.72,1.98l-1.45,4c1.97,1.14,3.3,3.27,3.3,5.71,0,.39-.04.77-.1,1.14l4,1.46c.8-.88,2.08-1.25,3.27-.81,1.56.57,2.37,2.3,1.8,3.86Zm-14.61-8.75c0-.53-.43-.96-.96-.96-2.24,0-4.07,1.82-4.07,4.07,0,.53.43.96.96.96s.96-.43.96-.96c0-1.18.96-2.14,2.14-2.14.53,0,.96-.43.96-.96Z"/>
  </g>
</svg>