<?xml version="1.0" encoding="UTF-8"?>
<svg id="Layer_2" data-name="Layer 2" xmlns="http://www.w3.org/2000/svg" viewBox="0 0 119.76 101.5">
  <defs>
    <style>
      .cls-1 {
        fill: #fff;
        opacity: .2;
      }
    </style>
  </defs>
  <g id="Layer_1-2" data-name="Layer 1">
    <path class="cls-1" d="m88.61,29.1C59.26,6.47,61.24,7.88,60.59,7.76c-.59-.11-1.13.15-1.49.62-.42.55-.04-.58-5.42,19.42l10.82.53c3.66.18,6.82,2.79,7.67,6.36l6.85,28.5c11.96-31.91,11.21-29.62,11.21-30.59,0-1.41-.68-2.77-1.63-3.5Zm-6.75,9.19c-1.51,1.46-3.83.66-5.21-1.54-2.29-3.65-.66-8.23,2.54-7.45,3.35.82,5.1,6.63,2.68,8.99Zm37.85-15.08c-.11-.4-.47-.47-.87-.33-25.29,8.68-23.39,7.95-24.11,8.47-.98.72-1.91,1.93-2.35,3.07-12.65,33.11-11.96,31.14-11.96,31.66,0,.43.22.7.66.68.46-.01-1.06.67,23.34-11.25.98-.48,2.11-1.81,2.61-2.94,13.07-29.34,12.89-28.56,12.66-29.36Zm-17.18,21.59c-2.73,4.15-6.48,4.81-4.9.92.44-1.07,1.16-2.12,1.94-2.98,3.36-3.71,5.74-2.18,2.96,2.06Zm15.84-25.5c-.42-.48,1.29.75-26.54-18.23-1.09-.74-2.79-1.21-3.81-1.02-26.68,4.86-25.08,4.5-25.47,4.79-.64.48-.19,1.2.49,1.72,29.09,22.16,27.73,21.41,29.65,21.88.71.18,1.6.27,2.29.04,24.89-8.22,23.54-7.68,23.73-8.02.21-.37-.06-.83-.34-1.14Zm-38.91-7.99c-2.34.53-6.37-.91-7.53-2.68-1.39-2.1,2.25-2.94,6.02-1.25,3,1.35,3.79,3.4,1.51,3.92Zm7.01-7.19c1.02-.97,4.55-.38,6.79,1.17,3.41,2.35.16,4-4.24,2.03-1.98-.89-3.45-2.37-2.54-3.2Zm8.98,19c-2.81.86-8.16-1.6-8.3-3.83-.14-2.15,4.76-1.96,7.87.31,1.98,1.44,2.13,3.01.43,3.52Zm10.72-4.29c-2.4-.62-4.62-2.14-4.85-3.41-.34-1.93,4.07-1.75,7.09.36,3.05,2.11,1.68,4.07-2.24,3.06ZM5.2,62.06c-1.52-4.13,1.16-5.53,4.25-2.2.91.98,1.69,2.23,2.15,3.52,1.46,4.08-1.23,5.44-4.31,2.09-.88-.96-1.64-2.17-2.1-3.41h0Zm7.56,20.53c-1.4-3.81,1.3-4.8,4.32-1.51,3.02,3.3,3.25,7.55.37,6.67-1.77-.54-3.84-2.86-4.69-5.16h0Zm2.19-18.51c-.5-1.41-.7-3.38.54-4.02,1.51-.77,4.02,1.04,5.52,3.5,2.07,3.38,1.59,6.58-.96,6.01-1.92-.43-4.18-2.88-5.1-5.49h0Zm7.51,21.32c-1.14-3.23.67-4.62,3.35-2.77,3.44,2.38,5.17,7.59,2.84,8.24-1.91.53-5.11-2.41-6.19-5.47h0Zm3.15-19.12c-.34-1.03-.55-2.34-.08-3.31.88-1.83,3.42-1.07,5.43,1.05,3.53,3.73,3.49,8.79.06,8.02-2.1-.47-4.5-3.03-5.41-5.76h0Zm7.42,22.18c-.48-1.43-.51-3.2.86-3.62,2.58-.79,7.13,4.07,7,7.54-.02.5-.14.91-.36,1.22-1.47,2.13-6.16-1.12-7.5-5.15h0Zm12.67,10.72l-12.51-39.48c-.61-1.92-2.31-3.75-3.81-3.99C-1.08,50.84.91,51.05.49,51.32c-.73.46-.52,1.78-.18,2.67l12.98,34.92c.54,1.45,1.88,3,3.05,3.39,29.91,9.79,28.06,9.27,28.65,9.16.65-.13,1.17-.83.71-2.28h0Zm-15.48-65.5c3.06-1.81,8.17-2.48,8.2-1.07.01.59-.92,1.24-1.42,1.54-3.1,1.88-8.4,2.55-8.27,1.06.05-.6.98-1.22,1.49-1.53h0Zm-16.97,10.04c.53-.31,1.12-.6,1.74-.85,5.28-2.13,8.97-.82,4.91,1.64-3.46,2.1-8.84,2.68-8.43.95.16-.68,1.18-1.37,1.78-1.73h0Zm16.58-4.42c4-2.43,10.35-2.6,8.32-.25-2.16,2.5-10.08,3.98-9.91,1.95.06-.66,1.02-1.34,1.59-1.69h0Zm16.8-4.48c1.04-.65,2.37-1.15,3.56-1.47,5.82-1.55,7.55.77,2.48,2.87-5.24,2.17-9.88,1-6.04-1.4h0Zm-17.25,10.81c1.61-1.01,3.91-1.76,5.85-1.98,5.53-.63,3.91,2.96-2.16,4.55-4.89,1.28-7.23-.35-3.69-2.57h0Zm6.28,5.97c32.04-21.08,30.22-19.81,30.51-20.23.46-.66-.27-.98-1.16-1.02-30.96-1.51-29.88-1.76-32.45-.74-.37.15-.72.31-1.03.49C.27,48.31,2.16,47.15,1.69,47.6c-.65.61-.58,1.1.28,1.23,30.85,4.58,28.47,4.3,29.5,4.2,1.38-.13,3.06-.68,4.2-1.44h0Zm35.68,24c1.39-1.15,2.14-3.25,2.21-5.1.17-4.64-3.46-6.24-5.7-2.58-2.25,3.69-.87,8.97,2.16,8.35.44-.09.89-.31,1.33-.67h0Zm-15.58,12.89c1.01-.84,1.72-2.1,2.09-3.38,1.38-4.75-1.67-8.42-4.81-5.94-3.26,2.56-3.34,9-.19,10.05,1.03.34,2.07-.03,2.92-.73h0Zm10.05-34.47c1.9-1.4,2.76-4.66,2.12-7.25-1.09-4.38-5.34-3.97-6.69.64-1.36,4.63,1.56,8.83,4.58,6.61h0Zm-16.55,12.18c1.09-.8,1.83-2.09,2.21-3.39,1.46-4.91-1.83-9.07-5.17-6.74-3.45,2.4-3.55,9.21-.16,10.63,1.07.45,2.19.18,3.11-.5h0Zm-11.68-12.62c32.08-21.44,29.97-20.17,30.67-20.19,1.09-.03,1.82,1.02,2.09,2.14,9.62,40.01,9.05,37.31,9.02,38.28-.05,1.2-.54,2.57-1.41,3.31-28.38,24.2-26.56,22.78-27.32,22.99-1.01.28-1.96-.28-2.36-1.54l-12.33-39.57c-.62-1.98.14-4.41,1.65-5.41h0Z"/>
  </g>
</svg>