<?xml version="1.0" encoding="UTF-8"?>
<svg id="Layer_2" data-name="Layer 2" xmlns="http://www.w3.org/2000/svg" viewBox="0 0 124.89 127.51">
  <defs>
    <style>
      .cls-1 {
        fill: #fff;
        opacity: .2;
      }
    </style>
  </defs>
  <g id="Layer_1-2" data-name="Layer 1">
    <path class="cls-1" d="m111.21,37.26c-3.26.77-5.29,4.05-4.52,7.31l1.36,5.78-15.64-18.31c-2.06-2.41-5.69-2.69-8.1-.64-.76.65-1.33,1.47-1.66,2.39l-1.29-1.51c-2.06-2.41-5.69-2.69-8.1-.64-1.98,1.69-2.53,4.45-1.51,6.72-1.03.15-2.04.59-2.89,1.31-2.41,2.06-2.69,5.69-.64,8.1l1.28,1.5c-.95.18-1.87.61-2.66,1.28-1.17,1-1.89,2.4-2.01,3.94h0c-.12,1.54.36,3.03,1.37,4.21l11.87,13.89s3.18,3.73,5.13,5.88c.9,1,4.16,4.54,8.29,8.13,3.99,3.47,7.28,5.65,9.77,6.48,1.61.54,3.26.73,4.9.58,1.47-.13,2.92-.53,4.43-1.22,2.57-1.16,4.88-2.96,7.01-4.78.12-.1.24-.21.36-.31,3.33-2.88,5.33-5.74,6.28-9.01.88-3.04.85-6.49-.11-10.85-.5-2.29-.98-4.7-1.45-7.04-.64-3.2-1.3-6.52-2.04-9.64h0c-.05-.2-.32-1.36-2.13-9.04-.77-3.26-4.05-5.28-7.31-4.52Zm4.46,5.19c.73,3.07,2.1,8.91,2.13,9.03,0,0,0,0,0,0,.73,3.07,1.38,6.36,2.02,9.54.47,2.35.95,4.78,1.46,7.09.85,3.86.9,6.85.15,9.41-.78,2.7-2.49,5.12-5.38,7.61-2.06,1.78-4.29,3.57-6.67,4.64-2.51,1.13-4.86,1.3-7.19.52-4.62-1.54-12.58-9.09-16.81-13.79-1.92-2.13-5.04-5.79-5.08-5.83l-11.87-13.89c-.5-.58-.74-1.32-.68-2.08h0c.06-.76.41-1.45.99-1.95,1.2-1.02,3-.88,4.02.32l7.44,8.71c.04.07.09.13.14.19l3.88,4.54c.53.61,1.45.69,2.06.16s.69-1.45.16-2.06l-3.72-4.36c-.04-.06-.08-.12-.12-.17,0,0-.02-.02-.02-.03,0,0,0,0,0,0l-12.13-14.2c-1.01-1.18-.87-2.96.31-3.97s2.96-.87,3.97.31c0,0,0,0,0,0l16.02,18.75c.53.61,1.45.69,2.06.16s.69-1.45.16-2.06l-16.01-18.74s0,0-.01-.01l-2.11-2.47c-1.01-1.18-.87-2.96.31-3.97s2.96-.87,3.97.31l4.53,5.3,13.6,15.92c.53.61,1.45.69,2.06.16s.69-1.45.16-2.06l-13.6-15.92c-1-1.18-.85-2.96.32-3.96s2.96-.87,3.97.31l18.65,21.83c-1.77,1.7-3.14,3.52-4.08,5.45-.92,1.87-1.42,3.84-1.51,5.83-.15,3.43,1.01,5.79,1.06,5.89l2.62-1.31h0s-.91-1.89-.75-4.6c.09-1.57.51-3.13,1.25-4.62.95-1.9,2.42-3.72,4.39-5.4,0,0,0,0,.01,0,0,0,.01-.01.02-.02.03-.02.05-.05.08-.07,0,0,0,0,0,0,.03-.03.05-.06.08-.09,0,0,0,0,0,0,.15-.19.25-.41.3-.63,0,0,0-.01,0-.02,0-.03.01-.07.02-.1,0,0,0-.02,0-.02,0-.03,0-.07,0-.1,0,0,0-.01,0-.02,0-.03,0-.07,0-.1,0,0,0,0,0,0,0-.04,0-.08-.01-.11,0,0,0,0,0-.01,0-.04-.01-.08-.02-.12,0,0,0,0,0,0l-2.75-11.66c-.4-1.69.65-3.39,2.34-3.79,1.69-.4,3.39.65,3.79,2.34Z"/>
    <path class="cls-1" d="m71.55,96.99c-.02-.35-.05-.69-.1-1.02-.12-1.34-.41-2.58-.88-3.72-1.12-2.75-2.97-4.27-4.14-5.01,0,0,0,0-.01,0l.9-6.18c.52-3.57-1.96-6.89-5.53-7.41-.06,0-.11-.02-.17-.02,0,0-.01,0-.02,0-.05,0-.1-.01-.15-.02-.01,0-.03,0-.04,0-.04,0-.08,0-.12,0-.02,0-.03,0-.05,0-.04,0-.08,0-.12,0-.02,0-.04,0-.06,0-.04,0-.07,0-.11,0-.02,0-.04,0-.06,0-.04,0-.07,0-.11,0-.02,0-.04,0-.06,0-.03,0-.07,0-.1,0-.02,0-.04,0-.06,0-.03,0-.07,0-.1,0-.02,0-.04,0-.06,0-.03,0-.07,0-.1,0-.02,0-.04,0-.06,0-.03,0-.07,0-.1.01-.02,0-.04,0-.06,0-.03,0-.07,0-.1.01-.02,0-.04,0-.06,0-.03,0-.07,0-.1.01-.02,0-.04,0-.06.01-.03,0-.06.01-.1.02-.02,0-.04,0-.06.01-.03,0-.06.01-.1.02-.02,0-.04,0-.06.01-.03,0-.06.01-.1.02-.02,0-.04.01-.06.02-.03,0-.06.02-.09.02-.02,0-.04.01-.06.02-.03,0-.06.02-.09.03-.02,0-.04.01-.06.02-.03,0-.06.02-.09.03-.02,0-.04.01-.06.02-.03.01-.06.02-.09.03-.02,0-.04.01-.06.02-.03.01-.06.02-.09.03-.02,0-.04.02-.06.02-.03.01-.06.02-.09.04-.02,0-.04.02-.06.02-.03.01-.06.02-.09.04-.02,0-.04.02-.06.03-.03.01-.06.03-.09.04-.02,0-.04.02-.06.03-.03.01-.06.03-.09.04-.02,0-.04.02-.06.03-.03.01-.06.03-.08.04-.02,0-.04.02-.06.03-.03.01-.06.03-.08.05-.02.01-.04.02-.06.03-.03.02-.05.03-.08.05-.02.01-.04.02-.06.03-.03.02-.05.03-.08.05-.02.01-.04.02-.06.03-.03.02-.05.03-.08.05-.02.01-.04.02-.06.04-.03.02-.05.03-.08.05-.02.01-.04.03-.05.04-.03.02-.05.04-.08.05-.02.01-.04.03-.05.04-.02.02-.05.04-.07.05-.01,0-.02.02-.03.02,0,0,0-.02-.01-.03-.02-.04-.04-.08-.06-.12,0-.02-.02-.03-.02-.05-.03-.05-.06-.11-.09-.16,0,0,0,0,0,0-.03-.05-.06-.11-.09-.16,0-.01-.02-.03-.03-.04-.02-.04-.05-.08-.07-.11,0-.02-.02-.03-.03-.05-.03-.04-.05-.08-.08-.12,0-.01-.02-.02-.02-.04-.03-.05-.07-.1-.1-.15,0,0,0-.01-.01-.02-.03-.04-.06-.09-.1-.13-.01-.01-.02-.03-.03-.04-.03-.04-.06-.07-.08-.11-.01-.01-.02-.03-.03-.04-.03-.04-.07-.08-.1-.12,0,0-.01-.01-.02-.02-.04-.05-.08-.09-.12-.14,0,0-.01-.02-.02-.02-.03-.04-.07-.07-.1-.11-.01-.01-.02-.03-.04-.04-.03-.03-.06-.07-.1-.1-.01-.01-.02-.02-.04-.03-.04-.04-.08-.08-.13-.12,0,0,0,0,0,0-.05-.04-.09-.08-.14-.12-.01,0-.02-.02-.03-.03-.04-.03-.07-.06-.11-.09-.01-.01-.03-.02-.04-.03-.04-.03-.07-.06-.11-.09-.01,0-.02-.02-.04-.03-.1-.07-.2-.15-.3-.21-.01,0-.03-.02-.04-.03-.04-.03-.08-.05-.12-.07-.02,0-.03-.02-.05-.03-.04-.03-.08-.05-.12-.07-.01,0-.02-.01-.04-.02-.05-.03-.11-.06-.16-.09,0,0-.01,0-.02,0-.05-.03-.1-.05-.15-.08-.02,0-.03-.02-.05-.02-.04-.02-.08-.04-.12-.06-.02,0-.04-.02-.05-.02-.05-.02-.09-.04-.14-.06-.01,0-.02-.01-.04-.02-.06-.02-.12-.05-.17-.07-.01,0-.03,0-.04-.01-.05-.02-.09-.03-.14-.05-.02,0-.04-.01-.06-.02-.04-.01-.08-.03-.13-.04-.02,0-.04-.01-.06-.02-.05-.02-.1-.03-.16-.05,0,0-.02,0-.03,0-.06-.02-.12-.03-.18-.05-.02,0-.03,0-.05-.01-.05-.01-.09-.02-.14-.03-.02,0-.04,0-.06-.01-.04,0-.09-.02-.13-.03-.02,0-.04,0-.06-.01-.06-.01-.13-.02-.19-.03s-.13-.02-.2-.03c-.02,0-.04,0-.06,0-.05,0-.1,0-.15-.01-.02,0-.04,0-.06,0-.06,0-.13,0-.19-.01,0,0,0,0,0,0-.07,0-.13,0-.2,0-.02,0-.04,0-.06,0-.05,0-.1,0-.14,0-.02,0-.04,0-.06,0-.06,0-.12,0-.18,0,0,0-.01,0-.02,0-.06,0-.13,0-.19.01-.02,0-.04,0-.06,0-.05,0-.09,0-.14.02-.02,0-.04,0-.06,0-.06,0-.11.02-.17.02,0,0-.01,0-.02,0-.06.01-.13.02-.19.03-.02,0-.04,0-.05.01-.05,0-.09.02-.14.03-.02,0-.04,0-.06.01-.05.01-.11.03-.16.04,0,0-.02,0-.03,0-.06.02-.12.03-.18.05-.02,0-.03.01-.05.02-.04.01-.09.03-.13.04-.02,0-.04.01-.06.02-.05.02-.1.03-.15.05,0,0-.02,0-.03.01-.06.02-.12.04-.18.07-.02,0-.03.01-.05.02-.04.02-.09.04-.13.05-.02,0-.04.02-.06.02-.05.02-.09.04-.14.06-.01,0-.02,0-.03.01-.06.03-.11.05-.17.08-.02,0-.03.02-.05.02-.04.02-.08.04-.12.07-.02,0-.04.02-.05.03-.04.02-.09.05-.13.08-.01,0-.02.01-.03.02-.05.03-.11.07-.16.1-.01,0-.03.02-.04.03-.04.03-.08.05-.12.08-.02.01-.03.02-.05.03-.04.03-.08.06-.12.09-.01,0-.02.02-.03.02-.05.04-.1.07-.15.11-.01.01-.03.02-.04.03-.04.03-.07.06-.11.09-.02.01-.03.03-.05.04-.04.03-.07.06-.11.1-.01,0-.02.02-.03.03-.05.04-.09.08-.14.13-.01.01-.02.02-.03.03-.03.03-.07.07-.1.1-.01.01-.03.03-.04.04-.03.03-.07.07-.1.11-.01.01-.02.02-.03.03-.04.05-.08.09-.12.14-.01.01-.02.02-.03.04-.03.04-.06.07-.09.11,0,0-.01.02-.02.02,0,0,0,0,0,0-.01-.02-.03-.03-.04-.05-.02-.02-.04-.05-.06-.07-.01-.02-.03-.03-.04-.05-.02-.02-.04-.05-.06-.07-.01-.02-.03-.03-.05-.05-.02-.02-.04-.04-.06-.06-.02-.02-.03-.03-.05-.05-.02-.02-.04-.04-.06-.06-.02-.02-.03-.03-.05-.05-.02-.02-.04-.04-.06-.06-.02-.02-.03-.03-.05-.05-.02-.02-.04-.04-.06-.06-.02-.02-.04-.03-.05-.05-.02-.02-.04-.04-.06-.06-.02-.02-.04-.03-.06-.05-.02-.02-.04-.04-.06-.05-.02-.02-.04-.03-.06-.05-.02-.02-.04-.03-.06-.05-.02-.02-.04-.03-.06-.05-.02-.02-.04-.03-.06-.05-.02-.02-.04-.03-.06-.05-.02-.02-.04-.03-.06-.05-.02-.02-.04-.03-.06-.05-.02-.02-.04-.03-.06-.05-.02-.01-.04-.03-.06-.04-.02-.02-.04-.03-.07-.05-.02-.01-.04-.03-.06-.04-.02-.01-.04-.03-.07-.04-.02-.01-.04-.03-.06-.04-.02-.01-.05-.03-.07-.04-.02-.01-.04-.03-.06-.04-.02-.01-.05-.03-.07-.04-.02-.01-.04-.03-.07-.04-.02-.01-.05-.03-.07-.04-.02-.01-.04-.02-.07-.04-.02-.01-.05-.03-.07-.04-.02-.01-.04-.02-.07-.03-.02-.01-.05-.02-.07-.04-.02-.01-.05-.02-.07-.03-.03-.01-.05-.02-.08-.04-.02-.01-.05-.02-.07-.03-.03-.01-.05-.02-.08-.03-.02,0-.05-.02-.07-.03-.03-.01-.05-.02-.08-.03-.02,0-.05-.02-.07-.03-.03-.01-.05-.02-.08-.03-.02,0-.05-.02-.07-.03-.03,0-.06-.02-.08-.03-.02,0-.05-.02-.07-.02-.03,0-.06-.02-.09-.03-.02,0-.04-.01-.07-.02-.03,0-.06-.02-.09-.03-.02,0-.04-.01-.07-.02-.03,0-.06-.02-.09-.02-.02,0-.04-.01-.06-.02-.03,0-.07-.02-.1-.02-.02,0-.04,0-.06-.01-.04,0-.07-.02-.11-.02-.02,0-.03,0-.05-.01-.04,0-.09-.02-.13-.02-.01,0-.02,0-.03,0-.05,0-.11-.02-.17-.03,0,0,0,0,0,0-.06,0-.13-.02-.19-.02-.02,0-.04,0-.06,0-.05,0-.09,0-.14-.01-.02,0-.04,0-.07,0-.05,0-.1,0-.15,0-.01,0-.03,0-.04,0-.06,0-.13,0-.19,0-.02,0-.04,0-.06,0-.05,0-.09,0-.14,0-.02,0-.04,0-.07,0-.05,0-.09,0-.14,0-.02,0-.04,0-.06,0-.06,0-.12,0-.19.01-.01,0-.03,0-.04,0-.05,0-.1,0-.15.01-.02,0-.04,0-.07,0-.04,0-.08.01-.13.02-.02,0-.04,0-.07,0-.05,0-.11.02-.16.03,0,0-.02,0-.03,0-.06.01-.12.02-.18.04-.02,0-.04,0-.06.01-.04,0-.08.02-.12.03-.02,0-.05.01-.07.02-.04.01-.09.02-.13.03-.02,0-.04,0-.05.01-.06.02-.11.03-.17.05-.02,0-.04.01-.06.02-.04.01-.08.03-.12.04-.02,0-.04.02-.07.02-.04.01-.08.03-.11.04-.02,0-.04.02-.06.02-.06.02-.11.04-.16.07-.01,0-.03.01-.04.02-.04.02-.08.04-.13.06-.02,0-.04.02-.06.03-.04.02-.07.03-.11.05-.02.01-.04.02-.06.03-.04.02-.08.04-.13.07-.01,0-.02.01-.04.02-.05.03-.1.06-.15.09-.02.01-.04.02-.06.03-.03.02-.07.04-.1.06-.02.01-.04.02-.06.04-.04.02-.07.05-.11.07-.02.01-.03.02-.05.03-.05.03-.1.07-.15.1-.02.01-.03.02-.05.03-.03.03-.07.05-.1.08-.02.01-.04.03-.05.04-.03.03-.07.05-.1.08-.02.01-.03.03-.05.04-.05.04-.09.08-.14.12,0,0-.02.01-.02.02-.04.03-.08.07-.11.1-.02.01-.03.03-.05.04-.03.03-.06.06-.09.09-.02.01-.03.03-.05.04-.04.04-.07.07-.11.11,0,0-.01.01-.02.02-.04.04-.08.09-.12.13-.01.01-.02.03-.04.04-.03.03-.06.07-.09.1,0,0-.01.02-.02.02-.01-.02-.03-.03-.04-.05-.02-.02-.03-.04-.05-.06-.02-.02-.03-.04-.05-.06-.02-.02-.03-.04-.05-.06-.02-.02-.03-.04-.05-.06-.02-.02-.04-.04-.05-.06-.02-.02-.03-.04-.05-.05-.02-.02-.04-.04-.06-.06-.02-.02-.03-.03-.05-.05-.02-.02-.04-.04-.06-.06-.02-.02-.03-.03-.05-.05-.02-.02-.04-.04-.06-.06-.02-.02-.03-.03-.05-.05-.02-.02-.04-.04-.06-.06-.02-.01-.03-.03-.05-.04-.02-.02-.04-.04-.07-.06-.02-.01-.03-.03-.05-.04-.02-.02-.05-.04-.07-.06-.02-.01-.03-.03-.05-.04-.02-.02-.05-.04-.07-.06-.02-.01-.03-.03-.05-.04-.02-.02-.05-.04-.08-.06-.02-.01-.03-.02-.05-.04-.03-.02-.05-.04-.08-.06-.02-.01-.03-.02-.05-.04-.03-.02-.05-.04-.08-.06-.02-.01-.03-.02-.05-.03-.03-.02-.05-.04-.08-.06-.02-.01-.03-.02-.05-.03-.03-.02-.06-.04-.08-.05-.02-.01-.03-.02-.05-.03-.03-.02-.06-.04-.09-.05-.02,0-.03-.02-.05-.03-.03-.02-.06-.03-.09-.05-.02,0-.03-.02-.05-.03-.03-.02-.06-.03-.09-.05-.02,0-.03-.02-.05-.03-.03-.02-.06-.03-.09-.05-.02,0-.03-.02-.05-.03-.03-.02-.06-.03-.09-.04-.02,0-.04-.02-.05-.03-.03-.01-.06-.03-.09-.04-.02,0-.04-.02-.06-.02-.03-.01-.06-.03-.09-.04-.02,0-.04-.02-.06-.02-.03-.01-.06-.02-.09-.04-.02,0-.04-.02-.06-.02-.03-.01-.06-.02-.09-.03-.02,0-.04-.01-.06-.02-.03-.01-.06-.02-.09-.03-.02,0-.04-.01-.07-.02-.03,0-.06-.02-.09-.03-.02,0-.05-.01-.07-.02-.03,0-.06-.02-.09-.02-.03,0-.05-.01-.08-.02-.03,0-.06-.01-.08-.02-.03,0-.05-.01-.08-.02-.03,0-.05-.01-.08-.02-.03,0-.06-.01-.09-.02-.02,0-.05-.01-.07-.01-.04,0-.07-.01-.11-.02-.02,0-.04,0-.06-.01-.06,0-.11-.02-.17-.03-3.57-.52-6.89,1.96-7.41,5.53l-1.17,8.07c-.04.27-.06.54-.07.8-.28,2.05-.52,3.77-.57,4.24-.19,1.58-.8,7.24-.77,13.72.03,6.24.65,10.84,1.84,13.68.76,1.82,1.85,3.41,3.24,4.73,1.25,1.18,2.71,2.15,4.47,2.95,3.01,1.37,6.41,2.02,9.67,2.5.19.03.38.05.56.08,2.56.36,4.83.43,6.94.22,2.16-.22,4.09-.73,5.92-1.57,3.48-1.59,6.48-4.32,9.45-8.59,2.1-3.02,3.81-5.88,5.09-8.53.01-.02.02-.04.03-.06,0-.02.01-.03.02-.05.53-1.1.99-2.17,1.37-3.2,1.15-3.08,1.66-5.91,1.52-8.4Zm-14.28-17.4s.01-.06.02-.09c0-.03,0-.06.02-.09,0-.03.01-.06.02-.09,0-.03.01-.06.02-.09,0-.03.01-.05.02-.08,0-.03.02-.06.03-.1,0-.02.01-.04.02-.06.01-.04.02-.08.04-.11,0-.02.02-.04.02-.06.01-.04.03-.07.04-.11,0,0,0-.01,0-.02.63-1.47,2.19-2.4,3.84-2.16,1.97.29,3.34,2.12,3.06,4.1l-.77,5.28-6.86-3.06.47-3.26Zm-.91,6.27l6.86,3.06-.2,1.38c-.29,1.97-2.12,3.34-4.1,3.06-1.97-.29-3.34-2.12-3.06-4.1l.49-3.4Zm-9.2-7.3h0s.2-1.39.2-1.39c.29-1.97,2.12-3.34,4.1-3.06s3.34,2.12,3.06,4.1l-.14.96h0s-.35,2.44-.35,2.44l-2.33-1.04s0,0,0,0c-1.57-.69-3.27-.71-4.78-.18l.26-1.82Zm-.81,5.6c1.01-1.14,2.68-1.56,4.15-.91l3.09,1.38-.61,4.22-.3,2.03c-.06.38-.17.74-.33,1.07l-4.74-2.08c-.81-.36-1.45-.98-1.82-1.78l.57-3.93Zm3.24,9.78c-.33.05-.67.05-1.01,0-1.03-.15-1.9-.73-2.45-1.52.1.05.2.1.3.14l3.17,1.39Zm-13.82-7.58l1.17-8.07.17-1.18c.1-.68.38-1.28.79-1.78.04-.04.08-.09.11-.13.78-.86,1.96-1.33,3.19-1.15s2.23.96,2.74,2.01c.03.05.05.11.07.16.25.59.35,1.25.25,1.93l-.71,4.87c-.19.29-.35.6-.5.92-.62,1.42-.72,2.99-.29,4.47l-.15,1.02-.05.32c-.29,1.97-2.12,3.34-4.1,3.06s-3.34-2.12-3.06-4.1l.34-2.33Zm-8.88-9.53s.01-.06.02-.1c0-.03,0-.06.02-.09,0-.03.01-.06.02-.09,0-.03.01-.06.02-.09,0-.03.02-.05.02-.08,0-.03.02-.06.03-.09,0-.03.02-.05.03-.08.01-.03.02-.06.03-.09,0-.02.02-.05.03-.07.01-.03.02-.06.04-.1,0-.02.02-.04.03-.06.01-.03.03-.07.04-.1,0-.02.02-.04.03-.06.02-.03.03-.07.05-.1,0-.02.02-.04.03-.05.02-.03.04-.07.06-.1,0-.02.02-.03.03-.05.02-.03.04-.07.06-.1,0-.01.02-.03.03-.04.02-.03.05-.07.07-.1,0-.01.02-.02.03-.04.03-.03.05-.07.08-.1,0-.01.02-.02.03-.03.03-.03.06-.07.09-.1,0,0,.02-.02.02-.02.03-.03.06-.07.1-.1,0,0,.02-.02.02-.02.03-.03.07-.07.1-.1,0,0,.02-.01.02-.02.04-.03.07-.06.11-.09,0,0,.01-.01.02-.02.04-.03.08-.06.12-.09,0,0,.01,0,.02-.01.04-.03.08-.06.12-.09,0,0,.01,0,.02-.01.04-.03.08-.06.13-.08,0,0,.02,0,.02-.01.04-.03.08-.05.13-.07,0,0,.02,0,.02-.01.04-.02.09-.05.13-.07,0,0,.01,0,.02,0,.05-.02.09-.04.14-.06,0,0,.02,0,.03-.01.04-.02.09-.04.13-.05,0,0,.02,0,.03,0,.05-.02.09-.03.14-.05,0,0,.02,0,.03,0,.05-.01.09-.03.14-.04.01,0,.03,0,.04,0,.04-.01.09-.02.13-.03.01,0,.03,0,.04,0,.04,0,.09-.02.13-.02.02,0,.03,0,.05,0,.04,0,.08-.01.13-.02.02,0,.05,0,.07,0,.04,0,.07,0,.11,0,.03,0,.05,0,.08,0,.03,0,.07,0,.1,0,.03,0,.06,0,.08,0,.03,0,.07,0,.1,0,.03,0,.07,0,.1,0,.03,0,.05,0,.08,0,.06,0,.12.01.18.02,1.97.29,3.34,2.12,3.06,4.1l-1.17,8.07c-.29,1.97-2.12,3.34-4.1,3.06-1.77-.26-3.06-1.77-3.09-3.51.52-3.73,1.18-8.46,1.21-8.66Zm39.09,30.6s0,0,0,.01c-1.21,2.5-2.83,5.21-4.86,8.12-2.66,3.82-5.29,6.23-8.27,7.6-3.07,1.41-6.64,1.76-11.23,1.12-3.22-.45-6.58-1.05-9.43-2.34-3.04-1.38-5.07-3.39-6.23-6.15-2.2-5.25-1.77-17.86-.92-25.41.91.79,2.05,1.33,3.33,1.52,1.57.23,3.1-.13,4.36-.9.68,2.4,2.72,4.31,5.35,4.69,2.1.3,4.11-.43,5.52-1.81.99,1.55,2.62,2.67,4.57,2.96,1.33.19,2.62-.03,3.75-.57-.71,1.17-1.54,2.72-2.15,4.48-1.84,5.28-.94,9.89,2.59,13.32.23.22.51.36.81.4.45.07.92-.08,1.26-.43.56-.58.55-1.51-.03-2.07-1.47-1.43-2.33-3.11-2.56-5.01-.19-1.57.04-3.31.68-5.18,1.14-3.32,3.2-5.87,3.22-5.89.07-.08.12-.17.17-.25.07-.07.13-.15.18-.24.72.44,1.55.74,2.43.87,3.5.51,6.77-1.87,7.38-5.33,1.1,1.19,2.31,2.8,2.66,5.39.06.77.06,1.58-.01,2.43-.23,2.56-1.09,5.48-2.55,8.69Z"/>
    <path class="cls-1" d="m47.66,45.92c.46-2.33.13-4.67-1-6.96-.17-.36-.36-.69-.54-1,0,0,0,0,0,0-.34-.56-.68-1.04-.99-1.44.07-.07.13-.13.2-.21l17.32-19.09c2.13-2.35,1.95-5.99-.4-8.11-2.35-2.13-5.99-1.95-8.11.4l-4.75,5.24,3.53-6.13c1.58-2.74.63-6.26-2.11-7.84-2.74-1.58-6.26-.63-7.84,2.11l-8.55,14.85c-.17-.31-.38-.61-.61-.88,0,0,0-.01-.01-.02-.03-.03-.05-.06-.08-.09-.01-.01-.02-.02-.03-.04-.02-.03-.04-.05-.07-.08-.01-.02-.03-.03-.04-.05-.02-.02-.04-.04-.06-.07-.02-.02-.03-.04-.05-.05-.02-.02-.04-.04-.06-.06-.02-.02-.04-.04-.06-.06-.02-.02-.04-.03-.05-.05-.02-.02-.04-.04-.07-.06-.02-.02-.03-.03-.05-.05-.02-.02-.05-.04-.07-.06-.02-.01-.03-.03-.05-.04-.03-.02-.05-.04-.08-.07-.02-.01-.03-.03-.05-.04-.03-.02-.06-.05-.09-.07-.01-.01-.03-.02-.04-.03-.04-.03-.09-.07-.13-.1h0s0,0,0,0h0s-.1-.07-.15-.11c-.02-.01-.03-.02-.05-.03-.04-.02-.07-.05-.11-.07-.02-.01-.03-.02-.05-.03-.04-.02-.08-.05-.12-.07-.01,0-.03-.02-.04-.03-.05-.03-.1-.06-.16-.09,0,0-.02-.01-.03-.02-.04-.02-.09-.05-.13-.07-.02,0-.03-.02-.05-.03-.04-.02-.08-.04-.11-.06-.02,0-.03-.02-.05-.02-.04-.02-.09-.04-.13-.06,0,0-.02,0-.03-.01-.05-.02-.11-.05-.16-.07-.01,0-.03-.01-.04-.02-.04-.02-.08-.03-.13-.05-.02,0-.04-.01-.05-.02-.04-.01-.08-.03-.12-.04-.02,0-.03-.01-.05-.02-.11-.04-.23-.07-.34-.1-.02,0-.03,0-.05-.01-.04-.01-.08-.02-.13-.03-.02,0-.04,0-.05-.01-.04,0-.09-.02-.13-.03-.01,0-.03,0-.04,0-.06-.01-.12-.02-.17-.03,0,0-.02,0-.02,0-.05,0-.1-.01-.15-.02-.02,0-.03,0-.05,0-.04,0-.08,0-.13-.01-.02,0-.03,0-.05,0-.05,0-.1,0-.15-.01,0,0-.02,0-.03,0-.06,0-.12,0-.18,0-.01,0-.03,0-.04,0-.05,0-.09,0-.14,0-.02,0-.04,0-.05,0-.04,0-.09,0-.13,0-.02,0-.03,0-.05,0-.12,0-.23.01-.35.02-.02,0-.03,0-.05,0-.04,0-.09,0-.13.01-.02,0-.04,0-.05,0-.04,0-.09.01-.13.02-.01,0-.03,0-.04,0-.06,0-.11.02-.17.03,0,0-.02,0-.02,0-.05,0-.1.02-.15.03-.02,0-.04,0-.05.01-.04,0-.08.02-.12.03-.02,0-.04,0-.05.01-.05.01-.09.02-.14.04-.01,0-.02,0-.03,0-.06.02-.11.03-.17.05-.01,0-.03,0-.04.01-.04.01-.08.03-.12.04-.02,0-.04.01-.06.02-.04.01-.08.03-.11.04-.01,0-.02,0-.03.01,0-.05-.02-.09-.03-.14,0,0,0-.01,0-.02,0-.04-.02-.08-.03-.12,0-.02,0-.03-.01-.05,0-.03-.02-.06-.02-.1,0-.02,0-.04-.01-.05,0-.03-.02-.06-.02-.09,0-.02-.01-.04-.02-.06,0-.03-.02-.06-.03-.09,0-.02-.01-.04-.02-.06,0-.03-.02-.06-.03-.08,0-.02-.01-.04-.02-.06,0-.03-.02-.06-.03-.08,0-.02-.01-.04-.02-.06-.01-.03-.02-.05-.03-.08,0-.02-.02-.04-.02-.06-.01-.03-.02-.05-.03-.08,0-.02-.02-.04-.02-.06-.01-.03-.02-.05-.03-.08,0-.02-.02-.04-.03-.06-.01-.03-.02-.05-.04-.08,0-.02-.02-.04-.03-.06-.01-.03-.02-.05-.04-.08,0-.02-.02-.04-.03-.06-.01-.03-.03-.05-.04-.08,0-.02-.02-.04-.03-.06-.01-.02-.03-.05-.04-.07-.01-.02-.02-.04-.03-.06-.01-.02-.03-.05-.04-.07-.01-.02-.02-.04-.03-.06-.01-.02-.03-.05-.04-.07-.01-.02-.02-.04-.03-.05-.02-.02-.03-.05-.05-.07-.01-.02-.02-.04-.04-.05-.02-.02-.03-.05-.05-.07-.01-.02-.03-.04-.04-.05-.02-.02-.03-.05-.05-.07-.01-.02-.03-.04-.04-.05-.02-.02-.03-.04-.05-.07-.01-.02-.03-.03-.04-.05-.02-.02-.04-.04-.05-.07-.01-.02-.03-.03-.04-.05-.02-.02-.04-.04-.05-.06-.01-.02-.03-.03-.04-.05-.02-.02-.04-.04-.06-.06-.01-.02-.03-.03-.04-.05-.02-.02-.04-.04-.06-.06-.02-.02-.03-.03-.05-.05-.02-.02-.04-.04-.06-.06-.02-.02-.03-.03-.05-.05-.02-.02-.04-.04-.06-.06-.02-.02-.03-.03-.05-.05-.02-.02-.04-.04-.07-.06-.02-.01-.03-.03-.05-.04-.02-.02-.05-.04-.07-.06-.02-.01-.03-.03-.05-.04-.02-.02-.05-.04-.07-.06-.02-.01-.03-.03-.05-.04-.03-.02-.05-.04-.08-.07-.01-.01-.03-.02-.04-.03-.04-.03-.08-.06-.13-.09-2.76-2.01-6.65-1.4-8.66,1.36l-4.48,6.15s-.06.08-.09.12c-.02.03-.04.05-.05.08,0,.01-.02.03-.03.04-.02.04-.05.07-.07.11,0,0,0,0,0,.01-.13.21-.25.43-.35.65-1.13,1.67-3.85,5.86-6.37,10.76C1.71,35.3.3,39.21.05,41.99c-.16,1.85.05,3.65.62,5.35.52,1.53,1.31,2.97,2.42,4.41,1.9,2.45,4.42,4.47,6.91,6.28.14.1.29.21.43.31,3.92,2.83,7.49,4.23,11.22,4.41,3.47.17,7.15-.75,11.57-2.88,8.56-4.12,13.42-8.82,14.44-13.96Zm1.68-42.62c1.35.78,1.81,2.5,1.04,3.85l-10.33,17.93c-.37.65-.2,1.47.41,1.91s1.44.35,1.95-.2l13.9-15.33c1.04-1.15,2.83-1.24,3.98-.19,1.15,1.04,1.24,2.83.19,3.98l-17.28,19.06-5.78-7.15c-.95-1.19-2.27-1.97-3.76-2.24l.37-.5c.37-.51.65-1.05.85-1.62l10.63-18.46c.78-1.35,2.5-1.81,3.85-1.04Zm-28.11,22.59l4.48-6.15.66-.9c.13-.18.28-.35.44-.49.08-.07.16-.14.25-.21.22-.16.45-.29.69-.39,1.02-.42,2.23-.32,3.19.37h0s.08.06.12.09c.01,0,.02.02.04.03.03.02.05.05.08.07.01.01.03.02.04.03.03.03.05.05.08.08,0,0,.02.02.03.03.04.04.07.07.1.11,0,0,0,0,.01.01.03.03.06.07.09.1,0,0,.01.02.02.03.03.03.05.07.08.1,0,0,0,.01.01.02.57.77.77,1.76.56,2.69,0,.01,0,.02,0,.04,0,.03-.02.07-.03.1,0,.03-.01.05-.02.08-.1.34-.26.67-.48.97l-2.14,2.93c-.28.16-.55.34-.81.55-1.15.91-1.92,2.17-2.21,3.59l-1.27,1.75c-1.06,1.46-3.11,1.78-4.57.72-1.46-1.06-1.78-3.11-.72-4.57l1.29-1.78Zm-3.17-11.72c1.06-1.46,3.11-1.78,4.57-.72s1.78,3.11.72,4.57l-4.48,6.15c-1.06,1.46-3.11,1.78-4.57.72-1.27-.92-1.68-2.6-1.06-3.97.02-.05.04-.09.07-.14,0,0,0,0,0-.01.05-.1.11-.2.17-.3,0,0,0,0,0,0,.03-.05.06-.1.1-.14l4.48-6.15Zm23.57,36.62c-2.19,2.24-5.44,4.41-9.67,6.45-3.97,1.91-7.2,2.73-10.16,2.59-3.14-.15-6.2-1.38-9.64-3.86-2.45-1.77-4.96-3.72-6.74-6.01-1.89-2.44-2.69-4.96-2.44-7.71.21-2.37,1.55-6.01,3.88-10.55,1.09-2.12,2.42-4.48,3.81-6.74.43.88,1.07,1.67,1.92,2.29,1.18.86,2.56,1.24,3.92,1.18-.43,2.28.44,4.72,2.44,6.17,2.54,1.85,6.02,1.48,8.13-.73.18.35.4.69.66,1.01l2.25,2.82c-.5.86-1.22,2.26-1.78,4.03-.55,1.73-.83,3.46-.84,5.15-.01,2.13.41,4.18,1.27,6.1.11.24.27.44.47.59.41.3.96.38,1.46.15.74-.33,1.07-1.19.74-1.93-1.23-2.77-1.35-5.83-.34-9.08.3-.98.67-1.83,1-2.5l.72.9s0,0,0,0c.05.06.87,1.08,2.13,2,.04.03.07.05.11.08,1.93,1.37,3.89,1.78,5.68,1.19.77-.25,1.19-1.08.94-1.85-.25-.77-1.08-1.19-1.85-.94-2.19.72-4.67-2.25-4.72-2.31l-4.95-6.21c-.49-.62-.74-1.38-.71-2.17l2.14-2.94c.47-.17.98-.24,1.49-.18.87.1,1.65.53,2.19,1.21,0,0,0,0,0,0l8.52,10.54c.13.22.26.46.38.71.83,1.7,1.09,3.42.75,5.1-.36,1.83-1.43,3.66-3.16,5.44Z"/>
  </g>
</svg>