<?xml version="1.0" encoding="UTF-8"?>
<svg id="Layer_2"  data-name="Layer 2" xmlns="http://www.w3.org/2000/svg" viewBox="0 0 107.52 119.99" >
  <defs>
    <style>
      .cls-1 {
        fill: white;
      }
    </style>
  </defs>
  <g id="Layer_1-2" data-name="Layer 1">
    <g id="Layer_1-2" data-name="Layer 1-2">
      <g id="_211314264" data-name=" 211314264">
        <g id="_211316352" data-name=" 211316352">
          <path class="cls-1" d="m25.31,119.99H5.28c-2.92,0-5.28-2.36-5.28-5.28v-40.05c0-2.92,2.36-5.28,5.28-5.28h20c2.92,0,5.28,2.36,5.28,5.28v40.02c0,2.92-2.36,5.28-5.25,5.31ZM5.28,73.19c-.81,0-1.46.66-1.46,1.46v40.02c0,.81.66,1.46,1.46,1.46h20.03c.81,0,1.46-.66,1.46-1.46v-40.02c0-.81-.66-1.46-1.46-1.46H5.28Z"/>
        </g>
        <g id="_211315440" data-name=" 211315440">
          <path class="cls-1" d="m84.68,119.99h-45.79c-4.36,0-7.1-1.46-10.27-3.13-.27-.15-.57-.3-.87-.45-.93-.48-1.28-1.64-.81-2.57s1.64-1.28,2.57-.81h0c.3.15.6.3.87.45,3.04,1.61,5.04,2.69,8.45,2.69h45.79c1.88.03,3.7-.72,5.04-2.06,1.88-1.97,2.21-4.45.98-7.58-.39-.98.09-2.09,1.07-2.48.03,0,.06-.03.06-.03,4.69-1.61,2.48-8.69,2.45-8.77-.27-.81.06-1.7.78-2.18,2.92-1.94,4.27-4.45,3.97-7.43-.18-1.52-.69-2.98-1.46-4.3-.48-.72-.39-1.67.18-2.33.75-.84,1.43-1.76,2.06-2.72,1.19-1.88,1.28-4.27.18-6.24-1.07-2-3.16-3.22-5.43-3.22h-33.49c-2.54,0-4.6-2.06-4.6-4.6v-.15c.6-30.5-6.83-37.1-9.13-38.38-1.22-.69-2.45-.78-3.34-.21-.66.42-1.07,1.16-1.04,1.94,7.67,29.01-11.97,49.58-12.86,50.47-.78.72-1.97.66-2.69-.12-.66-.69-.69-1.76-.09-2.51l.06-.06c.78-.81,19.1-19.97,11.85-47.01-.03-.12-.06-.24-.06-.36-.18-2.24.9-4.39,2.81-5.61,2.09-1.31,4.81-1.28,7.25.09,4.39,2.48,11.7,11.19,11.1,41.82,0,.21.06.42.21.57s.33.24.54.24h33.55c5.52,0,10,4.48,10,9.97,0,1.88-.54,3.73-1.52,5.31-.48.75-1.01,1.49-1.55,2.18.69,1.43,1.13,2.98,1.34,4.54.33,2.9-.24,6.95-4.51,10.33.78,3.52.66,8.83-3.49,11.37,1.28,4.78-.48,8-2.33,9.91-2.09,2.27-4.89,3.43-7.82,3.43Z"/>
        </g>
        <g id="_211315416" data-name=" 211315416">
          <path class="cls-1" d="m56.2,16.18h0c-.66,0-1.28-.33-1.61-.9l-1.97-3.16-3.64-2.45c-.87-.6-1.1-1.76-.51-2.66.15-.21.33-.39.51-.51l3.64-2.45,1.97-3.16c.57-.9,1.73-1.16,2.63-.63.24.15.45.36.63.63l1.97,3.16,3.64,2.45c.87.6,1.1,1.79.51,2.66-.15.21-.3.39-.51.51l-3.64,2.45-1.97,3.16c-.39.57-.98.9-1.64.9Zm-2.75-8.09l1.64,1.1c.24.15.42.36.57.57l.57.9.57-.9c.15-.24.33-.42.57-.57l1.64-1.1-1.64-1.07c-.21-.15-.42-.36-.57-.57l-.57-.9-.57.9c-.15.24-.33.42-.57.57l-1.64,1.07Z"/>
        </g>
        <g id="_211315728" data-name=" 211315728">
          <path class="cls-1" d="m70.53,23.65c-2.69,0-4.84-.81-5.91-2.69-2.75-4.75,3.76-11.82,11.61-16.36,7.85-4.54,17.22-6.66,19.97-1.91.75,1.28,1.46,4.09-2,8.48-2.21,2.78-5.61,5.58-9.58,7.88-4.75,2.75-10.03,4.6-14.09,4.6ZM90.26,3.83c-2.6,0-6.92,1.04-12.15,4.06h0c-8.09,4.66-10.98,9.82-10.21,11.13.78,1.34,6.69,1.4,14.74-3.25,3.55-2.06,6.6-4.54,8.51-6.95,1.64-2.09,2.03-3.61,1.7-4.21-.24-.45-1.16-.78-2.6-.78Z"/>
        </g>
        <g id="_211316160" data-name=" 211316160">
          <path class="cls-1" d="m75.24,31.82c-2.69,0-4.84-.81-5.91-2.72-.54-.93-.21-2.09.69-2.6.93-.54,2.09-.21,2.6.69.78,1.34,6.69,1.4,14.74-3.25,3.55-2.06,6.6-4.54,8.51-6.95,1.64-2.09,2.03-3.61,1.7-4.21-.54-.93-.21-2.09.69-2.6.93-.54,2.09-.21,2.6.69h0c.75,1.28,1.46,4.09-2,8.48-2.21,2.78-5.61,5.58-9.58,7.88-4.69,2.75-9.97,4.6-14.03,4.6Z"/>
        </g>
        <g id="_211315920" data-name=" 211315920">
          <path class="cls-1" d="m71.01,30.06c-.69,0-1.31-.36-1.64-.96l-4.72-8.18c-.54-.93-.21-2.09.69-2.6s2.09-.21,2.6.69l4.72,8.18c.54.93.21,2.09-.69,2.6-.3.18-.63.27-.96.27h0Zm28.26-16.3c-.69,0-1.31-.36-1.64-.96l-4.72-8.18c-.54-.93-.21-2.09.69-2.6s2.09-.21,2.6.69h0l4.72,8.18c.54.93.21,2.09-.72,2.6-.27.18-.6.24-.93.27h0Z"/>
        </g>
        <g id="_211315224" data-name=" 211315224">
          <path class="cls-1" d="m99.18,82.24h-7.07c-1.04,0-1.91-.87-1.91-1.91s.87-1.91,1.91-1.91h7.07c1.04,0,1.91.87,1.91,1.91s-.87,1.91-1.91,1.91Z"/>
        </g>
        <g id="_211315032" data-name=" 211315032">
          <path class="cls-1" d="m96.11,96.59h-7.07c-1.04,0-1.91-.87-1.91-1.91s.87-1.91,1.91-1.91h7.07c1.04,0,1.91.87,1.91,1.91s-.84,1.91-1.91,1.91h0Z"/>
        </g>
        <g id="_211315152" data-name=" 211315152">
          <path class="cls-1" d="m92.47,107.72h-7.1c-1.04,0-1.91-.87-1.91-1.91s.87-1.91,1.91-1.91h7.1c1.04,0,1.91.87,1.91,1.91s-.87,1.91-1.91,1.91Z"/>
        </g>
        <g id="_211314984" data-name=" 211314984">
          <path class="cls-1" d="m89.69,55.7c-1.04,0-1.91-.87-1.91-1.91,0-.45.18-.9.48-1.25,17.19-19.64,15.43-27.01,15.4-27.1-.39-.98.09-2.09,1.07-2.48.98-.39,2.09.09,2.48,1.07.36.9,2.9,9.37-16.09,31.01-.36.42-.87.66-1.43.66Z"/>
        </g>
        <g id="_211315200" data-name=" 211315200">
          <path class="cls-1" d="m73.07,55.13c-1.04,0-1.91-.87-1.91-1.91,0-.63.33-1.22.84-1.58,10.95-7.31,11.31-11.16,11.31-11.19v.18l3.79-.42c.15,1.28-.36,6.18-12.98,14.62-.3.18-.66.3-1.04.3Z"/>
        </g>
        <g id="_211315056" data-name=" 211315056">
          <path class="cls-1" d="m15.28,111.16c-3.34,0-6.06-2.72-6.06-6.06s2.72-6.06,6.06-6.06,6.06,2.72,6.06,6.06h0c0,3.34-2.69,6.06-6.06,6.06Zm0-8.3c-1.22,0-2.24.98-2.24,2.24s.98,2.24,2.24,2.24,2.24-.98,2.24-2.24h0c0-1.22-.98-2.24-2.24-2.24Z"/>
        </g>
        <g id="_211315248" data-name=" 211315248">
          <path class="cls-1" d="m28.68,82.21H1.91C.87,82.21,0,81.34,0,80.3s.87-1.91,1.91-1.91h26.77c1.04,0,1.91.87,1.91,1.91s-.87,1.91-1.91,1.91Z"/>
        </g>
        <g id="_211314504" data-name=" 211314504">
          <path class="cls-1" d="m28.68,90.06H1.91C.87,90.06,0,89.19,0,88.14s.87-1.91,1.91-1.91h26.77c1.04,0,1.91.87,1.91,1.91s-.87,1.91-1.91,1.91Z"/>
        </g>
      </g>
    </g>
  </g>
</svg>