<?xml version="1.0" encoding="UTF-8"?>
<svg id="Layer_2" data-name="Layer 2" xmlns="http://www.w3.org/2000/svg" viewBox="0 0 44.29 44.26">
  <defs>
    <style>
      .cls-1 {
        fill: none;
        stroke: #fff;
        stroke-miterlimit: 10;
        stroke-width: .5px;
      }
    </style>
  </defs>
  <g id="Layer_1-2" data-name="Layer 1">
    <g>
      <path class="cls-1" d="m34.81,18.61c.23-.39-.25-.81-.61-.53l-17.08,13c-.17.13-.21.35-.11.53l4.78,8.29c.16.28.56.28.71,0l7.74-13.39,4.56-7.89Z"/>
      <path class="cls-1" d="m19.36,12.52H6.69c-.32,0-.52.34-.36.62l7.72,13.36h.03c.17.3.62.26.74-.06l4.92-13.36c.1-.27-.1-.56-.39-.56Z"/>
      <path class="cls-1" d="m22.15,9.42h17.82C35.99,3.87,29.49.25,22.15.25S8.3,3.87,4.33,9.42h17.82Z"/>
      <path class="cls-1" d="m41.83,12.55l-8.92,15.51-9.19,15.93c11.36-.81,20.32-10.27,20.32-21.83,0-3.44-.8-6.7-2.21-9.6Z"/>
      <path class="cls-1" d="m11.41,28.05L2.46,12.55C1.05,15.45.25,18.7.25,22.15c0,11.57,8.98,21.04,20.35,21.84l-9.19-15.93Z"/>
      <path class="cls-1" d="m35.17,12.52h-11.68c-.17,0-.33.11-.39.27l-4.54,12.35c-.14.39.31.72.64.47l16.22-12.35c.31-.24.14-.74-.25-.74Z"/>
    </g>
  </g>
</svg>